<svg width="63" height="60" viewBox="0 0 63 60" fill="none" xmlns="http://www.w3.org/2000/svg">
<rect x="0.5" y="0.5" width="62" height="59" rx="15.5" stroke="#2FAFFF"/>
<path d="M31.3868 30.1182C27.003 22.5894 17.5766 8.26921 13.917 11.0139C9.34256 14.4447 13.917 31.8847 17.6337 37.6028C21.3505 43.3208 26.0635 49.3233 31.4957 49.3233C36.9278 49.3233 41.6495 43.3208 45.3663 37.6028C49.083 31.8847 53.6574 14.4447 49.083 11.0139C45.4234 8.26921 35.7707 22.5894 31.3868 30.1182ZM31.3868 30.1182C27.003 37.647 17.5766 51.7258 13.917 48.9812C9.34256 45.5504 13.917 28.1103 17.6337 22.3923C21.3505 16.6742 26.0723 10.6716 31.5045 10.6716C36.9366 10.6716 41.6495 16.6742 45.3663 22.3923C49.083 28.1103 53.6574 45.5504 49.083 48.9812C45.4234 51.7258 35.7707 37.647 31.3868 30.1182Z" stroke="#2FAFFF" stroke-width="2"/>
</svg>
