<svg width="32" height="32" viewBox="0 0 32 32" fill="none" xmlns="http://www.w3.org/2000/svg">
<path d="M19.9998 9.50663V7.99996C19.9992 7.2061 19.7623 6.43039 19.3194 5.77157C18.8765 5.11276 18.2476 4.60063 17.5127 4.30038C16.7778 4.00014 15.9702 3.92535 15.1927 4.08555C14.4151 4.24574 13.7029 4.63367 13.1465 5.19996L10.6665 2.66663" stroke="white" stroke-width="2" stroke-linecap="round" stroke-linejoin="round"/>
<path d="M18.8267 5.17329L21.3333 2.66663" stroke="white" stroke-width="2" stroke-linecap="round" stroke-linejoin="round"/>
<path d="M29.3331 17.3334H23.9998V14.6667C23.9998 13.2522 23.4379 11.8957 22.4377 10.8955C21.4375 9.89528 20.0809 9.33337 18.6664 9.33337H16.9331" stroke="white" stroke-width="2" stroke-linecap="round" stroke-linejoin="round"/>
<path d="M27.9601 6.66663C27.9601 9.46663 25.8268 11.7333 23.2935 12" stroke="white" stroke-width="2" stroke-linecap="round" stroke-linejoin="round"/>
<path d="M2.6665 2.66663L29.3332 29.3333" stroke="white" stroke-width="2" stroke-linecap="round" stroke-linejoin="round"/>
<path d="M10.2668 10.2667C9.56152 10.7624 8.9869 11.4216 8.59214 12.1879C8.19737 12.9542 7.99424 13.8047 8.00012 14.6667V18.6667C7.9948 20.4151 8.56236 22.117 9.61598 23.5122C10.6696 24.9074 12.1513 25.919 13.8343 26.3924C15.5174 26.8657 17.3092 26.7746 18.9355 26.1331C20.5619 25.4916 21.9334 24.3349 22.8401 22.8401" stroke="white" stroke-width="2" stroke-linecap="round" stroke-linejoin="round"/>
<path d="M16 26.6667V16" stroke="white" stroke-width="2" stroke-linecap="round" stroke-linejoin="round"/>
<path d="M7.99984 17.3334H2.6665" stroke="white" stroke-width="2" stroke-linecap="round" stroke-linejoin="round"/>
<path d="M4 28C4 25.2 6.26667 22.8 9.06667 22.6666" stroke="white" stroke-width="2" stroke-linecap="round" stroke-linejoin="round"/>
</svg>
